{
	"asset":{
		"generator":"Khronos glTF Blender I/O v4.2.57",
		"version":"2.0"
	},
	"scene":0,
	"scenes":[
		{
			"name":"Scene",
			"nodes":[
				0,
				1
			]
		}
	],
	"nodes":[
		{
			"mesh":0,
			"name":"Base"
		},
		{
			"mesh":1,
			"name":"Button",
			"scale":[
				0.20064140856266022,
				0.20064140856266022,
				0.20064140856266022
			],
			"translation":[
				0,
				2.6987407207489014,
				0
			]
		}
	],
	"materials":[
		{
			"doubleSided":true,
			"name":"Pillar",
			"pbrMetallicRoughness":{
				"baseColorTexture":{
					"index":0
				},
				"metallicFactor":0,
				"metallicRoughnessTexture":{
					"index":1
				}
			}
		},
		{
			"doubleSided":true,
			"name":"Button",
			"pbrMetallicRoughness":{
				"baseColorTexture":{
					"index":2
				},
				"metallicFactor":0,
				"metallicRoughnessTexture":{
					"index":3
				}
			}
		}
	],
	"meshes":[
		{
			"name":"Cube",
			"primitives":[
				{
					"attributes":{
						"POSITION":0,
						"NORMAL":1,
						"TEXCOORD_0":2
					},
					"indices":3,
					"material":0
				}
			]
		},
		{
			"name":"Cube.001",
			"primitives":[
				{
					"attributes":{
						"POSITION":4,
						"NORMAL":5,
						"TEXCOORD_0":6
					},
					"indices":7,
					"material":1
				}
			]
		}
	],
	"textures":[
		{
			"sampler":0,
			"source":0
		},
		{
			"sampler":0,
			"source":1
		},
		{
			"sampler":0,
			"source":2
		},
		{
			"sampler":0,
			"source":3
		}
	],
	"images":[
		{
			"mimeType":"image/png",
			"name":"PillarButton_Pillar_BaseColor",
			"uri":"PillarButton_Pillar_BaseColor.png"
		},
		{
			"mimeType":"image/png",
			"name":"PillarButton_Pillar_Roughness",
			"uri":"PillarButton_Pillar_Roughness.png"
		},
		{
			"mimeType":"image/png",
			"name":"PillarButton_button_BaseColor",
			"uri":"PillarButton_button_BaseColor.png"
		},
		{
			"mimeType":"image/png",
			"name":"PillarButton_button_Roughness",
			"uri":"PillarButton_button_Roughness.png"
		}
	],
	"accessors":[
		{
			"bufferView":0,
			"componentType":5126,
			"count":146,
			"max":[
				0.3481654226779938,
				2.742924213409424,
				0.3481654226779938
			],
			"min":[
				-0.3481654226779938,
				0.06951636075973511,
				-0.3481654226779938
			],
			"type":"VEC3"
		},
		{
			"bufferView":1,
			"componentType":5126,
			"count":146,
			"type":"VEC3"
		},
		{
			"bufferView":2,
			"componentType":5126,
			"count":146,
			"type":"VEC2"
		},
		{
			"bufferView":3,
			"componentType":5123,
			"count":288,
			"type":"SCALAR"
		},
		{
			"bufferView":4,
			"componentType":5126,
			"count":218,
			"max":[
				0.8395062685012817,
				0.7818288207054138,
				0.8395062685012817
			],
			"min":[
				-0.8395062685012817,
				-0.8395062685012817,
				-0.8395062685012817
			],
			"type":"VEC3"
		},
		{
			"bufferView":5,
			"componentType":5126,
			"count":218,
			"type":"VEC3"
		},
		{
			"bufferView":6,
			"componentType":5126,
			"count":218,
			"type":"VEC2"
		},
		{
			"bufferView":7,
			"componentType":5123,
			"count":720,
			"type":"SCALAR"
		}
	],
	"bufferViews":[
		{
			"buffer":0,
			"byteLength":1752,
			"byteOffset":0,
			"target":34962
		},
		{
			"buffer":0,
			"byteLength":1752,
			"byteOffset":1752,
			"target":34962
		},
		{
			"buffer":0,
			"byteLength":1168,
			"byteOffset":3504,
			"target":34962
		},
		{
			"buffer":0,
			"byteLength":576,
			"byteOffset":4672,
			"target":34963
		},
		{
			"buffer":0,
			"byteLength":2616,
			"byteOffset":5248,
			"target":34962
		},
		{
			"buffer":0,
			"byteLength":2616,
			"byteOffset":7864,
			"target":34962
		},
		{
			"buffer":0,
			"byteLength":1744,
			"byteOffset":10480,
			"target":34962
		},
		{
			"buffer":0,
			"byteLength":1440,
			"byteOffset":12224,
			"target":34963
		}
	],
	"samplers":[
		{
			"magFilter":9729,
			"minFilter":9987
		}
	],
	"buffers":[
		{
			"byteLength":13664,
			"uri":"PillarButton.bin"
		}
	]
}
