{
	"asset":{
		"generator":"Khronos glTF Blender I/O v4.2.57",
		"version":"2.0"
	},
	"scene":0,
	"scenes":[
		{
			"name":"Scene",
			"nodes":[
				0
			]
		}
	],
	"nodes":[
		{
			"mesh":0,
			"name":"Cylinder",
			"translation":[
				0,
				-1,
				0
			]
		}
	],
	"materials":[
		{
			"doubleSided":true,
			"name":"Material.001",
			"pbrMetallicRoughness":{
				"baseColorFactor":[
					0.19308799505233765,
					0.19308799505233765,
					0.19308799505233765,
					1
				],
				"metallicFactor":0.800000011920929,
				"roughnessFactor":0.699999988079071
			}
		}
	],
	"meshes":[
		{
			"name":"Cylinder.001",
			"primitives":[
				{
					"attributes":{
						"POSITION":0,
						"NORMAL":1,
						"TEXCOORD_0":2
					},
					"indices":3,
					"material":0
				}
			]
		}
	],
	"accessors":[
		{
			"bufferView":0,
			"componentType":5126,
			"count":545,
			"max":[
				1.5,
				3,
				1.5
			],
			"min":[
				-30,
				-6.099999904632568,
				-1.5
			],
			"type":"VEC3"
		},
		{
			"bufferView":1,
			"componentType":5126,
			"count":545,
			"type":"VEC3"
		},
		{
			"bufferView":2,
			"componentType":5126,
			"count":545,
			"type":"VEC2"
		},
		{
			"bufferView":3,
			"componentType":5123,
			"count":2658,
			"type":"SCALAR"
		}
	],
	"bufferViews":[
		{
			"buffer":0,
			"byteLength":6540,
			"byteOffset":0,
			"target":34962
		},
		{
			"buffer":0,
			"byteLength":6540,
			"byteOffset":6540,
			"target":34962
		},
		{
			"buffer":0,
			"byteLength":4360,
			"byteOffset":13080,
			"target":34962
		},
		{
			"buffer":0,
			"byteLength":5316,
			"byteOffset":17440,
			"target":34963
		}
	],
	"buffers":[
		{
			"byteLength":22756,
			"uri":"model.bin"
		}
	]
}
