{
	"asset":{
		"generator":"Khronos glTF Blender I/O v4.2.57",
		"version":"2.0"
	},
	"scene":0,
	"scenes":[
		{
			"name":"Scene",
			"nodes":[
				0,
				1
			]
		}
	],
	"nodes":[
		{
			"mesh":0,
			"name":"Gun",
			"scale":[
				0.5749823451042175,
				0.5749823451042175,
				0.5749823451042175
			],
			"translation":[
				0,
				0.18901389837265015,
				-1.4254796504974365
			]
		},
		{
			"mesh":1,
			"name":"Hand",
			"scale":[
				0.4117613136768341,
				0.4117613434791565,
				0.17930419743061066
			],
			"translation":[
				2.379984140396118,
				-0.31536293029785156,
				1.3971116542816162
			]
		}
	],
	"materials":[
		{
			"doubleSided":true,
			"name":"Metal",
			"pbrMetallicRoughness":{
				"baseColorTexture":{
					"index":0
				},
				"metallicRoughnessTexture":{
					"index":1
				}
			}
		},
		{
			"doubleSided":true,
			"name":"Jewel",
			"pbrMetallicRoughness":{
				"baseColorFactor":[
					0,
					0.04373505711555481,
					0.09989876300096512,
					1
				],
				"metallicFactor":0.5,
				"roughnessFactor":0.5
			}
		},
		{
			"doubleSided":true,
			"name":"HardMetal",
			"pbrMetallicRoughness":{
				"baseColorTexture":{
					"index":2
				},
				"metallicFactor":0,
				"metallicRoughnessTexture":{
					"index":3
				}
			}
		},
		{
			"doubleSided":true,
			"name":"Shell",
			"pbrMetallicRoughness":{
				"baseColorTexture":{
					"index":4
				},
				"metallicFactor":0.10000000149011612,
				"metallicRoughnessTexture":{
					"index":5
				}
			}
		},
		{
			"doubleSided":true,
			"name":"Screen",
			"pbrMetallicRoughness":{
				"baseColorFactor":[
					0,
					0,
					0,
					1
				],
				"metallicFactor":0,
				"roughnessFactor":0.5
			}
		},
		{
			"doubleSided":true,
			"name":"GunMetal",
			"pbrMetallicRoughness":{
				"baseColorTexture":{
					"index":6
				},
				"metallicRoughnessTexture":{
					"index":7
				}
			}
		},
		{
			"doubleSided":true,
			"name":"Hand",
			"normalTexture":{
				"index":8
			},
			"pbrMetallicRoughness":{
				"baseColorTexture":{
					"index":9
				},
				"metallicFactor":0,
				"metallicRoughnessTexture":{
					"index":10
				}
			}
		},
		{
			"doubleSided":true,
			"name":"Fabric",
			"pbrMetallicRoughness":{
				"baseColorFactor":[
					0.006995364557951689,
					0.006512096617370844,
					0.007499035447835922,
					1
				],
				"metallicFactor":0,
				"roughnessFactor":0.75
			}
		}
	],
	"meshes":[
		{
			"name":"Cube.001",
			"primitives":[
				{
					"attributes":{
						"POSITION":0,
						"NORMAL":1,
						"TEXCOORD_0":2
					},
					"indices":3,
					"material":0
				},
				{
					"attributes":{
						"POSITION":4,
						"NORMAL":5,
						"TEXCOORD_0":6
					},
					"indices":7,
					"material":1
				},
				{
					"attributes":{
						"POSITION":8,
						"NORMAL":9,
						"TEXCOORD_0":10
					},
					"indices":11,
					"material":2
				},
				{
					"attributes":{
						"POSITION":12,
						"NORMAL":13,
						"TEXCOORD_0":14
					},
					"indices":15,
					"material":3
				},
				{
					"attributes":{
						"POSITION":16,
						"NORMAL":17,
						"TEXCOORD_0":18
					},
					"indices":19,
					"material":4
				},
				{
					"attributes":{
						"POSITION":20,
						"NORMAL":21,
						"TEXCOORD_0":22
					},
					"indices":23,
					"material":5
				}
			]
		},
		{
			"name":"Cube.012",
			"primitives":[
				{
					"attributes":{
						"POSITION":24,
						"NORMAL":25,
						"TEXCOORD_0":26
					},
					"indices":27,
					"material":6
				},
				{
					"attributes":{
						"POSITION":28,
						"NORMAL":29,
						"TEXCOORD_0":30
					},
					"indices":31,
					"material":7
				}
			]
		}
	],
	"textures":[
		{
			"sampler":0,
			"source":0
		},
		{
			"sampler":0,
			"source":1
		},
		{
			"sampler":0,
			"source":2
		},
		{
			"sampler":0,
			"source":3
		},
		{
			"sampler":0,
			"source":4
		},
		{
			"sampler":0,
			"source":5
		},
		{
			"sampler":0,
			"source":6
		},
		{
			"sampler":0,
			"source":7
		},
		{
			"sampler":0,
			"source":8
		},
		{
			"sampler":0,
			"source":9
		},
		{
			"sampler":0,
			"source":10
		}
	],
	"images":[
		{
			"mimeType":"image/png",
			"name":"Gun_Metal_BaseColor",
			"uri":"Gun_Metal_BaseColor.png"
		},
		{
			"mimeType":"image/png",
			"name":"Gun_Metal_Metallic-Gun_Metal_Roughness",
			"uri":"Gun_Metal_Metallic-Gun_Metal_Roughness.png"
		},
		{
			"mimeType":"image/png",
			"name":"Gun_HardMetal_BaseColor",
			"uri":"Gun_HardMetal_BaseColor.png"
		},
		{
			"mimeType":"image/png",
			"name":"Gun_HardMetal_Roughness",
			"uri":"Gun_HardMetal_Roughness.png"
		},
		{
			"mimeType":"image/png",
			"name":"Gun_Shell_BaseColor",
			"uri":"Gun_Shell_BaseColor.png"
		},
		{
			"mimeType":"image/png",
			"name":"Gun_Shell_Roughness",
			"uri":"Gun_Shell_Roughness.png"
		},
		{
			"mimeType":"image/png",
			"name":"Gun_GunMEtal_BaseColor",
			"uri":"Gun_GunMEtal_BaseColor.png"
		},
		{
			"mimeType":"image/png",
			"name":"Gun_GunMEtal_Roughness",
			"uri":"Gun_GunMEtal_Roughness.png"
		},
		{
			"mimeType":"image/png",
			"name":"Hand_Hand_Normal",
			"uri":"Hand_Hand_Normal.png"
		},
		{
			"mimeType":"image/png",
			"name":"Hand_Hand_BaseColor",
			"uri":"Hand_Hand_BaseColor.png"
		},
		{
			"mimeType":"image/png",
			"name":"Hand_Hand_Roughness",
			"uri":"Hand_Hand_Roughness.png"
		}
	],
	"accessors":[
		{
			"bufferView":0,
			"componentType":5126,
			"count":774,
			"max":[
				1.0963753461837769,
				1.2214401960372925,
				6.380563735961914
			],
			"min":[
				-1.0963753461837769,
				-1.8457746505737305,
				-0.7913713455200195
			],
			"type":"VEC3"
		},
		{
			"bufferView":1,
			"componentType":5126,
			"count":774,
			"type":"VEC3"
		},
		{
			"bufferView":2,
			"componentType":5126,
			"count":774,
			"type":"VEC2"
		},
		{
			"bufferView":3,
			"componentType":5123,
			"count":2538,
			"type":"SCALAR"
		},
		{
			"bufferView":4,
			"componentType":5126,
			"count":582,
			"max":[
				1.149806261062622,
				1.1642351150512695,
				5.833982467651367
			],
			"min":[
				-1.149726152420044,
				-1.6388633251190186,
				-1.002368688583374
			],
			"type":"VEC3"
		},
		{
			"bufferView":5,
			"componentType":5126,
			"count":582,
			"type":"VEC3"
		},
		{
			"bufferView":6,
			"componentType":5126,
			"count":582,
			"type":"VEC2"
		},
		{
			"bufferView":7,
			"componentType":5123,
			"count":1872,
			"type":"SCALAR"
		},
		{
			"bufferView":8,
			"componentType":5126,
			"count":738,
			"max":[
				0.9339955449104309,
				0.5380737781524658,
				6.643151760101318
			],
			"min":[
				-0.9339955449104309,
				-2.311244249343872,
				1.454919457435608
			],
			"type":"VEC3"
		},
		{
			"bufferView":9,
			"componentType":5126,
			"count":738,
			"type":"VEC3"
		},
		{
			"bufferView":10,
			"componentType":5126,
			"count":738,
			"type":"VEC2"
		},
		{
			"bufferView":11,
			"componentType":5123,
			"count":2652,
			"type":"SCALAR"
		},
		{
			"bufferView":12,
			"componentType":5126,
			"count":583,
			"max":[
				1.2674108743667603,
				1.9239671230316162,
				3.0582220554351807
			],
			"min":[
				-1.2674108743667603,
				-1.8878669738769531,
				-1.397925853729248
			],
			"type":"VEC3"
		},
		{
			"bufferView":13,
			"componentType":5126,
			"count":583,
			"type":"VEC3"
		},
		{
			"bufferView":14,
			"componentType":5126,
			"count":583,
			"type":"VEC2"
		},
		{
			"bufferView":15,
			"componentType":5123,
			"count":1770,
			"type":"SCALAR"
		},
		{
			"bufferView":16,
			"componentType":5126,
			"count":8,
			"max":[
				0.7218337059020996,
				1.8076810836791992,
				1.0218546390533447
			],
			"min":[
				-0.7068578600883484,
				1.1615756750106812,
				0.1390499472618103
			],
			"type":"VEC3"
		},
		{
			"bufferView":17,
			"componentType":5126,
			"count":8,
			"type":"VEC3"
		},
		{
			"bufferView":18,
			"componentType":5126,
			"count":8,
			"type":"VEC2"
		},
		{
			"bufferView":19,
			"componentType":5123,
			"count":12,
			"type":"SCALAR"
		},
		{
			"bufferView":20,
			"componentType":5126,
			"count":143,
			"max":[
				1.0479772090911865,
				1.113393783569336,
				2.3394405841827393
			],
			"min":[
				-1.0475308895111084,
				-1,
				-1.64480459690094
			],
			"type":"VEC3"
		},
		{
			"bufferView":21,
			"componentType":5126,
			"count":143,
			"type":"VEC3"
		},
		{
			"bufferView":22,
			"componentType":5126,
			"count":143,
			"type":"VEC2"
		},
		{
			"bufferView":23,
			"componentType":5123,
			"count":420,
			"type":"SCALAR"
		},
		{
			"bufferView":24,
			"componentType":5126,
			"count":1683,
			"max":[
				-4.232845306396484,
				1.6606206893920898,
				8.96646499633789
			],
			"min":[
				-6.644977569580078,
				-1.6668481826782227,
				-3.218299388885498
			],
			"type":"VEC3"
		},
		{
			"bufferView":25,
			"componentType":5126,
			"count":1683,
			"type":"VEC3"
		},
		{
			"bufferView":26,
			"componentType":5126,
			"count":1683,
			"type":"VEC2"
		},
		{
			"bufferView":27,
			"componentType":5123,
			"count":6960,
			"type":"SCALAR"
		},
		{
			"bufferView":28,
			"componentType":5126,
			"count":349,
			"max":[
				-3.650724172592163,
				2.3947982788085938,
				27.45655059814453
			],
			"min":[
				-6.159687042236328,
				-0.5426673889160156,
				7.855578422546387
			],
			"type":"VEC3"
		},
		{
			"bufferView":29,
			"componentType":5126,
			"count":349,
			"type":"VEC3"
		},
		{
			"bufferView":30,
			"componentType":5126,
			"count":349,
			"type":"VEC2"
		},
		{
			"bufferView":31,
			"componentType":5123,
			"count":1416,
			"type":"SCALAR"
		}
	],
	"bufferViews":[
		{
			"buffer":0,
			"byteLength":9288,
			"byteOffset":0,
			"target":34962
		},
		{
			"buffer":0,
			"byteLength":9288,
			"byteOffset":9288,
			"target":34962
		},
		{
			"buffer":0,
			"byteLength":6192,
			"byteOffset":18576,
			"target":34962
		},
		{
			"buffer":0,
			"byteLength":5076,
			"byteOffset":24768,
			"target":34963
		},
		{
			"buffer":0,
			"byteLength":6984,
			"byteOffset":29844,
			"target":34962
		},
		{
			"buffer":0,
			"byteLength":6984,
			"byteOffset":36828,
			"target":34962
		},
		{
			"buffer":0,
			"byteLength":4656,
			"byteOffset":43812,
			"target":34962
		},
		{
			"buffer":0,
			"byteLength":3744,
			"byteOffset":48468,
			"target":34963
		},
		{
			"buffer":0,
			"byteLength":8856,
			"byteOffset":52212,
			"target":34962
		},
		{
			"buffer":0,
			"byteLength":8856,
			"byteOffset":61068,
			"target":34962
		},
		{
			"buffer":0,
			"byteLength":5904,
			"byteOffset":69924,
			"target":34962
		},
		{
			"buffer":0,
			"byteLength":5304,
			"byteOffset":75828,
			"target":34963
		},
		{
			"buffer":0,
			"byteLength":6996,
			"byteOffset":81132,
			"target":34962
		},
		{
			"buffer":0,
			"byteLength":6996,
			"byteOffset":88128,
			"target":34962
		},
		{
			"buffer":0,
			"byteLength":4664,
			"byteOffset":95124,
			"target":34962
		},
		{
			"buffer":0,
			"byteLength":3540,
			"byteOffset":99788,
			"target":34963
		},
		{
			"buffer":0,
			"byteLength":96,
			"byteOffset":103328,
			"target":34962
		},
		{
			"buffer":0,
			"byteLength":96,
			"byteOffset":103424,
			"target":34962
		},
		{
			"buffer":0,
			"byteLength":64,
			"byteOffset":103520,
			"target":34962
		},
		{
			"buffer":0,
			"byteLength":24,
			"byteOffset":103584,
			"target":34963
		},
		{
			"buffer":0,
			"byteLength":1716,
			"byteOffset":103608,
			"target":34962
		},
		{
			"buffer":0,
			"byteLength":1716,
			"byteOffset":105324,
			"target":34962
		},
		{
			"buffer":0,
			"byteLength":1144,
			"byteOffset":107040,
			"target":34962
		},
		{
			"buffer":0,
			"byteLength":840,
			"byteOffset":108184,
			"target":34963
		},
		{
			"buffer":0,
			"byteLength":20196,
			"byteOffset":109024,
			"target":34962
		},
		{
			"buffer":0,
			"byteLength":20196,
			"byteOffset":129220,
			"target":34962
		},
		{
			"buffer":0,
			"byteLength":13464,
			"byteOffset":149416,
			"target":34962
		},
		{
			"buffer":0,
			"byteLength":13920,
			"byteOffset":162880,
			"target":34963
		},
		{
			"buffer":0,
			"byteLength":4188,
			"byteOffset":176800,
			"target":34962
		},
		{
			"buffer":0,
			"byteLength":4188,
			"byteOffset":180988,
			"target":34962
		},
		{
			"buffer":0,
			"byteLength":2792,
			"byteOffset":185176,
			"target":34962
		},
		{
			"buffer":0,
			"byteLength":2832,
			"byteOffset":187968,
			"target":34963
		}
	],
	"samplers":[
		{
			"magFilter":9729,
			"minFilter":9987
		}
	],
	"buffers":[
		{
			"byteLength":190800,
			"uri":"ScaleGun.bin"
		}
	]
}
