{
	"asset":{
		"generator":"Khronos glTF Blender I/O v4.2.57",
		"version":"2.0"
	},
	"scene":0,
	"scenes":[
		{
			"name":"Scene",
			"nodes":[
				0,
				1,
				2
			]
		}
	],
	"nodes":[
		{
			"mesh":0,
			"name":"Camera",
			"scale":[
				0.3822765350341797,
				0.3822765350341797,
				0.3822765350341797
			]
		},
		{
			"mesh":1,
			"name":"Holder",
			"scale":[
				1,
				1,
				0.10438311100006104
			],
			"translation":[
				0,
				-0.1558835655450821,
				-1.6540364027023315
			]
		},
		{
			"mesh":2,
			"name":"Cube",
			"scale":[
				0.26497355103492737,
				0.26497355103492737,
				0.26497355103492737
			],
			"translation":[
				0,
				0.41128018498420715,
				0.4311535358428955
			]
		}
	],
	"materials":[
		{
			"doubleSided":true,
			"name":"Camera Body",
			"pbrMetallicRoughness":{
				"baseColorFactor":[
					0.005772279109805822,
					0,
					0.002532713348045945,
					1
				],
				"metallicFactor":0.10236220806837082,
				"roughnessFactor":0.4448818862438202
			}
		},
		{
			"doubleSided":true,
			"emissiveFactor":[
				0.3000030517578125,
				0.22048926530987956,
				0.253932818020985
			],
			"name":"Lens",
			"pbrMetallicRoughness":{
				"baseColorFactor":[
					0.07058823108673096,
					0.07058823108673096,
					0.07058823108673096,
					1
				],
				"roughnessFactor":0
			}
		},
		{
			"doubleSided":true,
			"emissiveFactor":[
				0.19999998807907104,
				0,
				0.0010537767154707445
			],
			"name":"Material.001",
			"pbrMetallicRoughness":{
				"baseColorFactor":[
					0.3485085070133209,
					0.0019432022236287594,
					0,
					1
				],
				"metallicFactor":0,
				"roughnessFactor":0.5
			}
		}
	],
	"meshes":[
		{
			"name":"Cube.001",
			"primitives":[
				{
					"attributes":{
						"POSITION":0,
						"NORMAL":1,
						"TEXCOORD_0":2
					},
					"indices":3,
					"material":0
				},
				{
					"attributes":{
						"POSITION":4,
						"NORMAL":5,
						"TEXCOORD_0":6
					},
					"indices":7,
					"material":1
				}
			]
		},
		{
			"name":"Cube.002",
			"primitives":[
				{
					"attributes":{
						"POSITION":8,
						"NORMAL":9,
						"TEXCOORD_0":10
					},
					"indices":11,
					"material":0
				}
			]
		},
		{
			"name":"Cube.003",
			"primitives":[
				{
					"attributes":{
						"POSITION":12,
						"NORMAL":13,
						"TEXCOORD_0":14
					},
					"indices":15,
					"material":2
				}
			]
		}
	],
	"accessors":[
		{
			"bufferView":0,
			"componentType":5126,
			"count":208,
			"max":[
				1.2138842344284058,
				1.1241909265518188,
				3.43501615524292
			],
			"min":[
				-1.2312711477279663,
				-1.1586883068084717,
				-2.025479316711426
			],
			"type":"VEC3"
		},
		{
			"bufferView":1,
			"componentType":5126,
			"count":208,
			"type":"VEC3"
		},
		{
			"bufferView":2,
			"componentType":5126,
			"count":208,
			"type":"VEC2"
		},
		{
			"bufferView":3,
			"componentType":5123,
			"count":360,
			"type":"SCALAR"
		},
		{
			"bufferView":4,
			"componentType":5126,
			"count":9,
			"max":[
				0.851457417011261,
				0.7617640495300293,
				3.0177345275878906
			],
			"min":[
				-0.868844211101532,
				-0.7962614893913269,
				3.0177345275878906
			],
			"type":"VEC3"
		},
		{
			"bufferView":5,
			"componentType":5126,
			"count":9,
			"type":"VEC3"
		},
		{
			"bufferView":6,
			"componentType":5126,
			"count":9,
			"type":"VEC2"
		},
		{
			"bufferView":7,
			"componentType":5123,
			"count":24,
			"type":"SCALAR"
		},
		{
			"bufferView":8,
			"componentType":5126,
			"count":254,
			"max":[
				1,
				1,
				11.183870315551758
			],
			"min":[
				-1,
				-1,
				-1
			],
			"type":"VEC3"
		},
		{
			"bufferView":9,
			"componentType":5126,
			"count":254,
			"type":"VEC3"
		},
		{
			"bufferView":10,
			"componentType":5126,
			"count":254,
			"type":"VEC2"
		},
		{
			"bufferView":11,
			"componentType":5123,
			"count":432,
			"type":"SCALAR"
		},
		{
			"bufferView":12,
			"componentType":5126,
			"count":39,
			"max":[
				0.8395062685012817,
				0.8395062685012817,
				0.8395062685012817
			],
			"min":[
				-0.8395062685012817,
				-0.8395062685012817,
				-0.8395062685012817
			],
			"type":"VEC3"
		},
		{
			"bufferView":13,
			"componentType":5126,
			"count":39,
			"type":"VEC3"
		},
		{
			"bufferView":14,
			"componentType":5126,
			"count":39,
			"type":"VEC2"
		},
		{
			"bufferView":15,
			"componentType":5123,
			"count":144,
			"type":"SCALAR"
		}
	],
	"bufferViews":[
		{
			"buffer":0,
			"byteLength":2496,
			"byteOffset":0,
			"target":34962
		},
		{
			"buffer":0,
			"byteLength":2496,
			"byteOffset":2496,
			"target":34962
		},
		{
			"buffer":0,
			"byteLength":1664,
			"byteOffset":4992,
			"target":34962
		},
		{
			"buffer":0,
			"byteLength":720,
			"byteOffset":6656,
			"target":34963
		},
		{
			"buffer":0,
			"byteLength":108,
			"byteOffset":7376,
			"target":34962
		},
		{
			"buffer":0,
			"byteLength":108,
			"byteOffset":7484,
			"target":34962
		},
		{
			"buffer":0,
			"byteLength":72,
			"byteOffset":7592,
			"target":34962
		},
		{
			"buffer":0,
			"byteLength":48,
			"byteOffset":7664,
			"target":34963
		},
		{
			"buffer":0,
			"byteLength":3048,
			"byteOffset":7712,
			"target":34962
		},
		{
			"buffer":0,
			"byteLength":3048,
			"byteOffset":10760,
			"target":34962
		},
		{
			"buffer":0,
			"byteLength":2032,
			"byteOffset":13808,
			"target":34962
		},
		{
			"buffer":0,
			"byteLength":864,
			"byteOffset":15840,
			"target":34963
		},
		{
			"buffer":0,
			"byteLength":468,
			"byteOffset":16704,
			"target":34962
		},
		{
			"buffer":0,
			"byteLength":468,
			"byteOffset":17172,
			"target":34962
		},
		{
			"buffer":0,
			"byteLength":312,
			"byteOffset":17640,
			"target":34962
		},
		{
			"buffer":0,
			"byteLength":288,
			"byteOffset":17952,
			"target":34963
		}
	],
	"buffers":[
		{
			"byteLength":18240,
			"uri":"Camera.bin"
		}
	]
}
