{
	"asset":{
		"generator":"Khronos glTF Blender I/O v4.2.57",
		"version":"2.0"
	},
	"scene":0,
	"scenes":[
		{
			"name":"Scene",
			"nodes":[
				0,
				1,
				2
			]
		}
	],
	"nodes":[
		{
			"mesh":0,
			"name":"Clone",
			"scale":[
				0.26859086751937866,
				0.26859086751937866,
				0.26859086751937866
			],
			"translation":[
				0,
				2.600105047225952,
				0
			]
		},
		{
			"mesh":1,
			"name":"Tube",
			"translation":[
				-0.21473729610443115,
				2.6273529529571533,
				0.0682254433631897
			]
		},
		{
			"mesh":2,
			"name":"Glass",
			"translation":[
				-0.21473729610443115,
				4.153637886047363,
				0.0682254433631897
			]
		}
	],
	"materials":[
		{
			"doubleSided":true,
			"name":"Other",
			"pbrMetallicRoughness":{
				"baseColorTexture":{
					"index":0
				},
				"metallicFactor":0
			}
		},
		{
			"doubleSided":true,
			"name":"RedPLate",
			"pbrMetallicRoughness":{
				"baseColorTexture":{
					"index":1
				},
				"metallicRoughnessTexture":{
					"index":2
				}
			}
		},
		{
			"doubleSided":true,
			"name":"BeltGlove",
			"pbrMetallicRoughness":{
				"baseColorFactor":[
					0.12477117776870728,
					0,
					0,
					1
				],
				"metallicFactor":0,
				"roughnessFactor":0.5
			}
		},
		{
			"doubleSided":true,
			"name":"DarkFAb",
			"pbrMetallicRoughness":{
				"baseColorTexture":{
					"index":3
				},
				"metallicFactor":0
			}
		},
		{
			"doubleSided":true,
			"name":"Boot",
			"pbrMetallicRoughness":{
				"baseColorFactor":[
					0.015208415687084198,
					0.015208528377115726,
					0.015208521857857704,
					1
				],
				"metallicFactor":0,
				"roughnessFactor":0.5
			}
		},
		{
			"doubleSided":true,
			"name":"head",
			"pbrMetallicRoughness":{
				"baseColorTexture":{
					"index":4
				},
				"metallicFactor":0,
				"roughnessFactor":0.5
			}
		},
		{
			"doubleSided":true,
			"name":"Wrist",
			"pbrMetallicRoughness":{
				"baseColorFactor":[
					0.038204122334718704,
					0.03820440545678139,
					0.038204390555620193,
					1
				],
				"metallicFactor":0
			}
		},
		{
			"doubleSided":true,
			"name":"Metal",
			"pbrMetallicRoughness":{
				"baseColorTexture":{
					"index":5
				},
				"metallicRoughnessTexture":{
					"index":6
				}
			}
		},
		{
			"alphaMode":"BLEND",
			"doubleSided":true,
			"name":"Glass",
			"normalTexture":{
				"index":7
			},
			"pbrMetallicRoughness":{
				"baseColorTexture":{
					"index":8
				},
				"metallicRoughnessTexture":{
					"index":9
				}
			}
		}
	],
	"meshes":[
		{
			"name":"Cube.001",
			"primitives":[
				{
					"attributes":{
						"POSITION":0,
						"NORMAL":1,
						"TEXCOORD_0":2
					},
					"indices":3,
					"material":0
				},
				{
					"attributes":{
						"POSITION":4,
						"NORMAL":5,
						"TEXCOORD_0":6
					},
					"indices":7,
					"material":1
				},
				{
					"attributes":{
						"POSITION":8,
						"NORMAL":9,
						"TEXCOORD_0":10
					},
					"indices":11,
					"material":2
				},
				{
					"attributes":{
						"POSITION":12,
						"NORMAL":13,
						"TEXCOORD_0":14
					},
					"indices":15,
					"material":3
				},
				{
					"attributes":{
						"POSITION":16,
						"NORMAL":17,
						"TEXCOORD_0":18
					},
					"indices":19,
					"material":4
				},
				{
					"attributes":{
						"POSITION":20,
						"NORMAL":21,
						"TEXCOORD_0":22
					},
					"indices":23,
					"material":5
				},
				{
					"attributes":{
						"POSITION":24,
						"NORMAL":25,
						"TEXCOORD_0":26
					},
					"indices":27,
					"material":6
				}
			]
		},
		{
			"name":"Cube",
			"primitives":[
				{
					"attributes":{
						"POSITION":28,
						"NORMAL":29,
						"TEXCOORD_0":30
					},
					"indices":31,
					"material":7
				}
			]
		},
		{
			"name":"Cube.002",
			"primitives":[
				{
					"attributes":{
						"POSITION":32,
						"NORMAL":33,
						"TEXCOORD_0":34
					},
					"indices":35,
					"material":8
				}
			]
		}
	],
	"textures":[
		{
			"sampler":0,
			"source":0
		},
		{
			"sampler":0,
			"source":1
		},
		{
			"sampler":0,
			"source":2
		},
		{
			"sampler":0,
			"source":3
		},
		{
			"sampler":0,
			"source":4
		},
		{
			"sampler":0,
			"source":5
		},
		{
			"sampler":0,
			"source":6
		},
		{
			"sampler":0,
			"source":7
		},
		{
			"sampler":0,
			"source":8
		},
		{
			"sampler":0,
			"source":9
		}
	],
	"images":[
		{
			"mimeType":"image/png",
			"name":"Soldier_Other_BaseColor",
			"uri":"Soldier_Other_BaseColor.png"
		},
		{
			"mimeType":"image/png",
			"name":"Soldier_RedPLate_BaseColor",
			"uri":"Soldier_RedPLate_BaseColor.png"
		},
		{
			"mimeType":"image/png",
			"name":"Soldier_RedPLate_Metallic-Soldier_RedPLate_Roughness",
			"uri":"Soldier_RedPLate_Metallic-Soldier_RedPLate_Roughness.png"
		},
		{
			"mimeType":"image/png",
			"name":"Soldier_DarkFAb_BaseColor",
			"uri":"Soldier_DarkFAb_BaseColor.png"
		},
		{
			"mimeType":"image/png",
			"name":"Soldier_head_BaseColor",
			"uri":"Soldier_head_BaseColor.png"
		},
		{
			"mimeType":"image/png",
			"name":"TubeSoldier_Metal_BaseColor",
			"uri":"TubeSoldier_Metal_BaseColor.png"
		},
		{
			"mimeType":"image/png",
			"name":"TubeSoldier_Metal_Metallic-TubeSoldier_Metal_Roughness",
			"uri":"TubeSoldier_Metal_Metallic-TubeSoldier_Metal_Roughness.png"
		},
		{
			"mimeType":"image/png",
			"name":"TubeSoldier_Glass_Normal",
			"uri":"TubeSoldier_Glass_Normal.png"
		},
		{
			"mimeType":"image/png",
			"name":"TubeSoldier_Glass_BaseColor-TubeSoldier_Glass_Alpha",
			"uri":"TubeSoldier_Glass_BaseColor-TubeSoldier_Glass_Alpha.png"
		},
		{
			"mimeType":"image/png",
			"name":"TubeSoldier_Glass_Metallic-TubeSoldier_Glass_Roughness",
			"uri":"TubeSoldier_Glass_Metallic-TubeSoldier_Glass_Roughness.png"
		}
	],
	"accessors":[
		{
			"bufferView":0,
			"componentType":5126,
			"count":362,
			"max":[
				0.8968627452850342,
				3.457632303237915,
				2.5151591300964355
			],
			"min":[
				-1.7007215023040771,
				-4.928197383880615,
				-1.8890223503112793
			],
			"type":"VEC3"
		},
		{
			"bufferView":1,
			"componentType":5126,
			"count":362,
			"type":"VEC3"
		},
		{
			"bufferView":2,
			"componentType":5126,
			"count":362,
			"type":"VEC2"
		},
		{
			"bufferView":3,
			"componentType":5123,
			"count":1308,
			"type":"SCALAR"
		},
		{
			"bufferView":4,
			"componentType":5126,
			"count":157,
			"max":[
				0.9843751788139343,
				3.0587189197540283,
				2.2286179065704346
			],
			"min":[
				-1.3803199529647827,
				-3.382770538330078,
				-1.883256196975708
			],
			"type":"VEC3"
		},
		{
			"bufferView":5,
			"componentType":5126,
			"count":157,
			"type":"VEC3"
		},
		{
			"bufferView":6,
			"componentType":5126,
			"count":157,
			"type":"VEC2"
		},
		{
			"bufferView":7,
			"componentType":5123,
			"count":576,
			"type":"SCALAR"
		},
		{
			"bufferView":8,
			"componentType":5126,
			"count":260,
			"max":[
				1.1982636451721191,
				1.1253364086151123,
				2.746696710586548
			],
			"min":[
				-0.7229653000831604,
				-0.35268306732177734,
				-1.817545771598816
			],
			"type":"VEC3"
		},
		{
			"bufferView":9,
			"componentType":5126,
			"count":260,
			"type":"VEC3"
		},
		{
			"bufferView":10,
			"componentType":5126,
			"count":260,
			"type":"VEC2"
		},
		{
			"bufferView":11,
			"componentType":5123,
			"count":1080,
			"type":"SCALAR"
		},
		{
			"bufferView":12,
			"componentType":5126,
			"count":100,
			"max":[
				0.700172483921051,
				2.934612512588501,
				1.1577035188674927
			],
			"min":[
				-1.0267844200134277,
				-2.0249688625335693,
				-1.1506881713867188
			],
			"type":"VEC3"
		},
		{
			"bufferView":13,
			"componentType":5126,
			"count":100,
			"type":"VEC3"
		},
		{
			"bufferView":14,
			"componentType":5126,
			"count":100,
			"type":"VEC2"
		},
		{
			"bufferView":15,
			"componentType":5123,
			"count":288,
			"type":"SCALAR"
		},
		{
			"bufferView":16,
			"componentType":5126,
			"count":160,
			"max":[
				-0.019793421030044556,
				-3.244598627090454,
				0.9420351386070251
			],
			"min":[
				-2.0670437812805176,
				-5.821680068969727,
				-0.9421378374099731
			],
			"type":"VEC3"
		},
		{
			"bufferView":17,
			"componentType":5126,
			"count":160,
			"type":"VEC3"
		},
		{
			"bufferView":18,
			"componentType":5126,
			"count":160,
			"type":"VEC2"
		},
		{
			"bufferView":19,
			"componentType":5123,
			"count":672,
			"type":"SCALAR"
		},
		{
			"bufferView":20,
			"componentType":5126,
			"count":144,
			"max":[
				0.7248128652572632,
				4.490884780883789,
				0.44959500432014465
			],
			"min":[
				-0.45431509613990784,
				2.8991262912750244,
				-0.49717602133750916
			],
			"type":"VEC3"
		},
		{
			"bufferView":21,
			"componentType":5126,
			"count":144,
			"type":"VEC3"
		},
		{
			"bufferView":22,
			"componentType":5126,
			"count":144,
			"type":"VEC2"
		},
		{
			"bufferView":23,
			"componentType":5123,
			"count":672,
			"type":"SCALAR"
		},
		{
			"bufferView":24,
			"componentType":5126,
			"count":28,
			"max":[
				0.3653044104576111,
				1.1660997867584229,
				2.4173598289489746
			],
			"min":[
				0.026129286736249924,
				0.23182964324951172,
				-1.7914856672286987
			],
			"type":"VEC3"
		},
		{
			"bufferView":25,
			"componentType":5126,
			"count":28,
			"type":"VEC3"
		},
		{
			"bufferView":26,
			"componentType":5126,
			"count":28,
			"type":"VEC2"
		},
		{
			"bufferView":27,
			"componentType":5123,
			"count":72,
			"type":"SCALAR"
		},
		{
			"bufferView":28,
			"componentType":5126,
			"count":256,
			"max":[
				1.2052104473114014,
				2.0714378356933594,
				1.2052102088928223
			],
			"min":[
				-1.2052104473114014,
				-2.628040313720703,
				-1.2052102088928223
			],
			"type":"VEC3"
		},
		{
			"bufferView":29,
			"componentType":5126,
			"count":256,
			"type":"VEC3"
		},
		{
			"bufferView":30,
			"componentType":5126,
			"count":256,
			"type":"VEC2"
		},
		{
			"bufferView":31,
			"componentType":5123,
			"count":384,
			"type":"SCALAR"
		},
		{
			"bufferView":32,
			"componentType":5126,
			"count":128,
			"max":[
				0.9681309461593628,
				0.27421605587005615,
				0.9681309461593628
			],
			"min":[
				-0.9681311845779419,
				-3.8791580200195312,
				-0.9681309461593628
			],
			"type":"VEC3"
		},
		{
			"bufferView":33,
			"componentType":5126,
			"count":128,
			"type":"VEC3"
		},
		{
			"bufferView":34,
			"componentType":5126,
			"count":128,
			"type":"VEC2"
		},
		{
			"bufferView":35,
			"componentType":5123,
			"count":192,
			"type":"SCALAR"
		}
	],
	"bufferViews":[
		{
			"buffer":0,
			"byteLength":4344,
			"byteOffset":0,
			"target":34962
		},
		{
			"buffer":0,
			"byteLength":4344,
			"byteOffset":4344,
			"target":34962
		},
		{
			"buffer":0,
			"byteLength":2896,
			"byteOffset":8688,
			"target":34962
		},
		{
			"buffer":0,
			"byteLength":2616,
			"byteOffset":11584,
			"target":34963
		},
		{
			"buffer":0,
			"byteLength":1884,
			"byteOffset":14200,
			"target":34962
		},
		{
			"buffer":0,
			"byteLength":1884,
			"byteOffset":16084,
			"target":34962
		},
		{
			"buffer":0,
			"byteLength":1256,
			"byteOffset":17968,
			"target":34962
		},
		{
			"buffer":0,
			"byteLength":1152,
			"byteOffset":19224,
			"target":34963
		},
		{
			"buffer":0,
			"byteLength":3120,
			"byteOffset":20376,
			"target":34962
		},
		{
			"buffer":0,
			"byteLength":3120,
			"byteOffset":23496,
			"target":34962
		},
		{
			"buffer":0,
			"byteLength":2080,
			"byteOffset":26616,
			"target":34962
		},
		{
			"buffer":0,
			"byteLength":2160,
			"byteOffset":28696,
			"target":34963
		},
		{
			"buffer":0,
			"byteLength":1200,
			"byteOffset":30856,
			"target":34962
		},
		{
			"buffer":0,
			"byteLength":1200,
			"byteOffset":32056,
			"target":34962
		},
		{
			"buffer":0,
			"byteLength":800,
			"byteOffset":33256,
			"target":34962
		},
		{
			"buffer":0,
			"byteLength":576,
			"byteOffset":34056,
			"target":34963
		},
		{
			"buffer":0,
			"byteLength":1920,
			"byteOffset":34632,
			"target":34962
		},
		{
			"buffer":0,
			"byteLength":1920,
			"byteOffset":36552,
			"target":34962
		},
		{
			"buffer":0,
			"byteLength":1280,
			"byteOffset":38472,
			"target":34962
		},
		{
			"buffer":0,
			"byteLength":1344,
			"byteOffset":39752,
			"target":34963
		},
		{
			"buffer":0,
			"byteLength":1728,
			"byteOffset":41096,
			"target":34962
		},
		{
			"buffer":0,
			"byteLength":1728,
			"byteOffset":42824,
			"target":34962
		},
		{
			"buffer":0,
			"byteLength":1152,
			"byteOffset":44552,
			"target":34962
		},
		{
			"buffer":0,
			"byteLength":1344,
			"byteOffset":45704,
			"target":34963
		},
		{
			"buffer":0,
			"byteLength":336,
			"byteOffset":47048,
			"target":34962
		},
		{
			"buffer":0,
			"byteLength":336,
			"byteOffset":47384,
			"target":34962
		},
		{
			"buffer":0,
			"byteLength":224,
			"byteOffset":47720,
			"target":34962
		},
		{
			"buffer":0,
			"byteLength":144,
			"byteOffset":47944,
			"target":34963
		},
		{
			"buffer":0,
			"byteLength":3072,
			"byteOffset":48088,
			"target":34962
		},
		{
			"buffer":0,
			"byteLength":3072,
			"byteOffset":51160,
			"target":34962
		},
		{
			"buffer":0,
			"byteLength":2048,
			"byteOffset":54232,
			"target":34962
		},
		{
			"buffer":0,
			"byteLength":768,
			"byteOffset":56280,
			"target":34963
		},
		{
			"buffer":0,
			"byteLength":1536,
			"byteOffset":57048,
			"target":34962
		},
		{
			"buffer":0,
			"byteLength":1536,
			"byteOffset":58584,
			"target":34962
		},
		{
			"buffer":0,
			"byteLength":1024,
			"byteOffset":60120,
			"target":34962
		},
		{
			"buffer":0,
			"byteLength":384,
			"byteOffset":61144,
			"target":34963
		}
	],
	"samplers":[
		{
			"magFilter":9729,
			"minFilter":9987
		}
	],
	"buffers":[
		{
			"byteLength":61528,
			"uri":"TubeSoldier.bin"
		}
	]
}
