{
	"asset":{
		"generator":"Khronos glTF Blender I/O v4.2.57",
		"version":"2.0"
	},
	"scene":0,
	"scenes":[
		{
			"name":"Scene",
			"nodes":[
				0,
				1
			]
		}
	],
	"nodes":[
		{
			"mesh":0,
			"name":"Base",
			"scale":[
				3.9679925441741943,
				0.2457180619239807,
				3.9679925441741943
			]
		},
		{
			"mesh":1,
			"name":"Propellers",
			"scale":[
				1,
				0.24359607696533203,
				1
			],
			"translation":[
				0,
				0.5492517352104187,
				0
			]
		}
	],
	"materials":[
		{
			"doubleSided":true,
			"name":"MEtal",
			"pbrMetallicRoughness":{
				"baseColorTexture":{
					"index":0
				},
				"metallicRoughnessTexture":{
					"index":1
				}
			}
		},
		{
			"doubleSided":true,
			"name":"Metal",
			"normalTexture":{
				"index":2
			},
			"pbrMetallicRoughness":{
				"baseColorTexture":{
					"index":3
				},
				"metallicFactor":0.75,
				"roughnessFactor":0.75
			}
		}
	],
	"meshes":[
		{
			"name":"Cube.001",
			"primitives":[
				{
					"attributes":{
						"POSITION":0,
						"NORMAL":1,
						"TEXCOORD_0":2
					},
					"indices":3,
					"material":0
				}
			]
		},
		{
			"name":"Cube.002",
			"primitives":[
				{
					"attributes":{
						"POSITION":4,
						"NORMAL":5,
						"TEXCOORD_0":6
					},
					"indices":7,
					"material":1
				}
			]
		}
	],
	"textures":[
		{
			"sampler":0,
			"source":0
		},
		{
			"sampler":0,
			"source":1
		},
		{
			"sampler":0,
			"source":2
		},
		{
			"sampler":0,
			"source":3
		}
	],
	"images":[
		{
			"mimeType":"image/png",
			"name":"Fan_MEtal_BaseColor",
			"uri":"Fan_MEtal_BaseColor.png"
		},
		{
			"mimeType":"image/png",
			"name":"Fan_MEtal_Metallic.png-Fan_MEtal_Roughness.png",
			"uri":"Fan_MEtal_Metallic_png-Fan_MEtal_Roughness_png.png"
		},
		{
			"mimeType":"image/png",
			"name":"Fan_MEtal_Normal",
			"uri":"Fan_MEtal_Normal.png"
		},
		{
			"mimeType":"image/png",
			"name":"Fan_MEtal_BaseColor",
			"uri":"Fan_MEtal_BaseColor-1.png"
		}
	],
	"accessors":[
		{
			"bufferView":0,
			"componentType":5126,
			"count":242,
			"max":[
				1.3835889101028442,
				4.999728202819824,
				1.3835889101028442
			],
			"min":[
				-1.3835889101028442,
				-1.0645735263824463,
				-1.3835889101028442
			],
			"type":"VEC3"
		},
		{
			"bufferView":1,
			"componentType":5126,
			"count":242,
			"type":"VEC3"
		},
		{
			"bufferView":2,
			"componentType":5126,
			"count":242,
			"type":"VEC2"
		},
		{
			"bufferView":3,
			"componentType":5123,
			"count":384,
			"type":"SCALAR"
		},
		{
			"bufferView":4,
			"componentType":5126,
			"count":154,
			"max":[
				3.90858793258667,
				1.1721606254577637,
				3.90858793258667
			],
			"min":[
				-3.90858793258667,
				-1.1721607446670532,
				-3.90858793258667
			],
			"type":"VEC3"
		},
		{
			"bufferView":5,
			"componentType":5126,
			"count":154,
			"type":"VEC3"
		},
		{
			"bufferView":6,
			"componentType":5126,
			"count":154,
			"type":"VEC2"
		},
		{
			"bufferView":7,
			"componentType":5123,
			"count":288,
			"type":"SCALAR"
		}
	],
	"bufferViews":[
		{
			"buffer":0,
			"byteLength":2904,
			"byteOffset":0,
			"target":34962
		},
		{
			"buffer":0,
			"byteLength":2904,
			"byteOffset":2904,
			"target":34962
		},
		{
			"buffer":0,
			"byteLength":1936,
			"byteOffset":5808,
			"target":34962
		},
		{
			"buffer":0,
			"byteLength":768,
			"byteOffset":7744,
			"target":34963
		},
		{
			"buffer":0,
			"byteLength":1848,
			"byteOffset":8512,
			"target":34962
		},
		{
			"buffer":0,
			"byteLength":1848,
			"byteOffset":10360,
			"target":34962
		},
		{
			"buffer":0,
			"byteLength":1232,
			"byteOffset":12208,
			"target":34962
		},
		{
			"buffer":0,
			"byteLength":576,
			"byteOffset":13440,
			"target":34963
		}
	],
	"samplers":[
		{
			"magFilter":9729,
			"minFilter":9987
		}
	],
	"buffers":[
		{
			"byteLength":14016,
			"uri":"Fan.bin"
		}
	]
}
