{
	"asset":{
		"generator":"Khronos glTF Blender I/O v4.2.57",
		"version":"2.0"
	},
	"scene":0,
	"scenes":[
		{
			"name":"Scene",
			"nodes":[
				0
			]
		}
	],
	"nodes":[
		{
			"mesh":0,
			"name":"Spikes",
			"scale":[
				0.45000001788139343,
				0.45000001788139343,
				0.45000001788139343
			],
			"translation":[
				-0.012495160102844238,
				0.041814789175987244,
				0.012495636940002441
			]
		}
	],
	"meshes":[
		{
			"name":"Cone",
			"primitives":[
				{
					"attributes":{
						"POSITION":0,
						"NORMAL":1,
						"TEXCOORD_0":2
					},
					"indices":3
				}
			]
		}
	],
	"accessors":[
		{
			"bufferView":0,
			"componentType":5126,
			"count":3072,
			"max":[
				1.9499891996383667,
				0.30707821249961853,
				1.9500095844268799
			],
			"min":[
				-1.950010895729065,
				-0.09292180836200714,
				-1.9499905109405518
			],
			"type":"VEC3"
		},
		{
			"bufferView":1,
			"componentType":5126,
			"count":3072,
			"type":"VEC3"
		},
		{
			"bufferView":2,
			"componentType":5126,
			"count":3072,
			"type":"VEC2"
		},
		{
			"bufferView":3,
			"componentType":5123,
			"count":4224,
			"type":"SCALAR"
		}
	],
	"bufferViews":[
		{
			"buffer":0,
			"byteLength":36864,
			"byteOffset":0,
			"target":34962
		},
		{
			"buffer":0,
			"byteLength":36864,
			"byteOffset":36864,
			"target":34962
		},
		{
			"buffer":0,
			"byteLength":24576,
			"byteOffset":73728,
			"target":34962
		},
		{
			"buffer":0,
			"byteLength":8448,
			"byteOffset":98304,
			"target":34963
		}
	],
	"buffers":[
		{
			"byteLength":106752,
			"uri":"spikes.bin"
		}
	]
}
