{
	"asset":{
		"generator":"Khronos glTF Blender I/O v4.2.57",
		"version":"2.0"
	},
	"scene":0,
	"scenes":[
		{
			"name":"Scene",
			"nodes":[
				0,
				1,
				2
			]
		}
	],
	"nodes":[
		{
			"mesh":0,
			"name":"Base",
			"scale":[
				1.2748373746871948,
				0.1135152131319046,
				1.2748373746871948
			]
		},
		{
			"mesh":1,
			"name":"Pivot",
			"scale":[
				0.19972097873687744,
				0.19972097873687744,
				0.19972097873687744
			]
		},
		{
			"mesh":2,
			"name":"Cannon",
			"scale":[
				0.399875670671463,
				0.399875670671463,
				0.399875670671463
			],
			"translation":[
				0,
				1.5593652725219727,
				0
			]
		}
	],
	"materials":[
		{
			"doubleSided":true,
			"name":"Base",
			"normalTexture":{
				"index":0
			},
			"pbrMetallicRoughness":{
				"baseColorTexture":{
					"index":1
				},
				"metallicRoughnessTexture":{
					"index":2
				}
			}
		},
		{
			"doubleSided":true,
			"name":"Holder",
			"pbrMetallicRoughness":{
				"baseColorTexture":{
					"index":3
				},
				"metallicRoughnessTexture":{
					"index":4
				}
			}
		},
		{
			"doubleSided":true,
			"name":"MEtal",
			"pbrMetallicRoughness":{
				"baseColorTexture":{
					"index":5
				},
				"metallicRoughnessTexture":{
					"index":6
				}
			}
		},
		{
			"doubleSided":true,
			"name":"Gun",
			"pbrMetallicRoughness":{
				"baseColorTexture":{
					"index":7
				},
				"metallicRoughnessTexture":{
					"index":8
				}
			}
		},
		{
			"doubleSided":true,
			"name":"gun metal",
			"normalTexture":{
				"index":9
			},
			"pbrMetallicRoughness":{
				"baseColorTexture":{
					"index":10
				},
				"metallicRoughnessTexture":{
					"index":11
				}
			}
		}
	],
	"meshes":[
		{
			"name":"Cube.001",
			"primitives":[
				{
					"attributes":{
						"POSITION":0,
						"NORMAL":1,
						"TEXCOORD_0":2
					},
					"indices":3,
					"material":0
				}
			]
		},
		{
			"name":"Cube.002",
			"primitives":[
				{
					"attributes":{
						"POSITION":4,
						"NORMAL":5,
						"TEXCOORD_0":6
					},
					"indices":7,
					"material":1
				},
				{
					"attributes":{
						"POSITION":8,
						"NORMAL":9,
						"TEXCOORD_0":10
					},
					"indices":11,
					"material":2
				}
			]
		},
		{
			"name":"Cube.003",
			"primitives":[
				{
					"attributes":{
						"POSITION":12,
						"NORMAL":13,
						"TEXCOORD_0":14
					},
					"indices":15,
					"material":3
				},
				{
					"attributes":{
						"POSITION":16,
						"NORMAL":17,
						"TEXCOORD_0":18
					},
					"indices":19,
					"material":4
				}
			]
		}
	],
	"textures":[
		{
			"sampler":0,
			"source":0
		},
		{
			"sampler":0,
			"source":1
		},
		{
			"sampler":0,
			"source":2
		},
		{
			"sampler":0,
			"source":3
		},
		{
			"sampler":0,
			"source":4
		},
		{
			"sampler":0,
			"source":5
		},
		{
			"sampler":0,
			"source":6
		},
		{
			"sampler":0,
			"source":7
		},
		{
			"sampler":0,
			"source":8
		},
		{
			"sampler":0,
			"source":9
		},
		{
			"sampler":0,
			"source":10
		},
		{
			"sampler":0,
			"source":11
		}
	],
	"images":[
		{
			"mimeType":"image/png",
			"name":"Turret_Base_Normal",
			"uri":"Turret_Base_Normal.png"
		},
		{
			"mimeType":"image/png",
			"name":"Turret_Base_BaseColor",
			"uri":"Turret_Base_BaseColor.png"
		},
		{
			"mimeType":"image/png",
			"name":"Turret_Base_Metallic-Turret_Base_Roughness",
			"uri":"Turret_Base_Metallic-Turret_Base_Roughness.png"
		},
		{
			"mimeType":"image/png",
			"name":"Turret_Holder_BaseColor",
			"uri":"Turret_Holder_BaseColor.png"
		},
		{
			"mimeType":"image/png",
			"name":"Turret_Holder_Metallic-Turret_Holder_Roughness",
			"uri":"Turret_Holder_Metallic-Turret_Holder_Roughness.png"
		},
		{
			"mimeType":"image/png",
			"name":"Turret_MEtal_BaseColor",
			"uri":"Turret_MEtal_BaseColor.png"
		},
		{
			"mimeType":"image/png",
			"name":"Turret_MEtal_Metallic-Turret_MEtal_Roughness",
			"uri":"Turret_MEtal_Metallic-Turret_MEtal_Roughness.png"
		},
		{
			"mimeType":"image/png",
			"name":"Turret_Gun_BaseColor",
			"uri":"Turret_Gun_BaseColor.png"
		},
		{
			"mimeType":"image/png",
			"name":"Turret_Gun_Metallic-Turret_Gun_Roughness",
			"uri":"Turret_Gun_Metallic-Turret_Gun_Roughness.png"
		},
		{
			"mimeType":"image/png",
			"name":"Turret_gun metal_Normal",
			"uri":"Turret_gun%20metal_Normal.png"
		},
		{
			"mimeType":"image/png",
			"name":"Turret_gun metal_BaseColor",
			"uri":"Turret_gun%20metal_BaseColor.png"
		},
		{
			"mimeType":"image/png",
			"name":"Turret_gun metal_Metallic-Turret_gun metal_Roughness",
			"uri":"Turret_gun%20metal_Metallic-Turret_gun%20metal_Roughness.png"
		}
	],
	"accessors":[
		{
			"bufferView":0,
			"componentType":5126,
			"count":98,
			"max":[
				1.2871304750442505,
				2.8426456451416016,
				1.291688084602356
			],
			"min":[
				-1.300803303718567,
				-1,
				-1.191420316696167
			],
			"type":"VEC3"
		},
		{
			"bufferView":1,
			"componentType":5126,
			"count":98,
			"type":"VEC3"
		},
		{
			"bufferView":2,
			"componentType":5126,
			"count":98,
			"type":"VEC2"
		},
		{
			"bufferView":3,
			"componentType":5123,
			"count":192,
			"type":"SCALAR"
		},
		{
			"bufferView":4,
			"componentType":5126,
			"count":220,
			"max":[
				3.788539409637451,
				9.518238067626953,
				4.078799247741699
			],
			"min":[
				-3.788539409637451,
				0.8712372779846191,
				-4.0651655197143555
			],
			"type":"VEC3"
		},
		{
			"bufferView":5,
			"componentType":5126,
			"count":220,
			"type":"VEC3"
		},
		{
			"bufferView":6,
			"componentType":5126,
			"count":220,
			"type":"VEC2"
		},
		{
			"bufferView":7,
			"componentType":5123,
			"count":408,
			"type":"SCALAR"
		},
		{
			"bufferView":8,
			"componentType":5126,
			"count":112,
			"max":[
				4.953919887542725,
				9.024850845336914,
				1.4148168563842773
			],
			"min":[
				-4.953919887542725,
				6.473897457122803,
				-1.4148168563842773
			],
			"type":"VEC3"
		},
		{
			"bufferView":9,
			"componentType":5126,
			"count":112,
			"type":"VEC3"
		},
		{
			"bufferView":10,
			"componentType":5126,
			"count":112,
			"type":"VEC2"
		},
		{
			"bufferView":11,
			"componentType":5123,
			"count":240,
			"type":"SCALAR"
		},
		{
			"bufferView":12,
			"componentType":5126,
			"count":270,
			"max":[
				1.2071068286895752,
				1.2071064710617065,
				1.443061351776123
			],
			"min":[
				-1.2071069478988647,
				-1.2071069478988647,
				-2.940281629562378
			],
			"type":"VEC3"
		},
		{
			"bufferView":13,
			"componentType":5126,
			"count":270,
			"type":"VEC3"
		},
		{
			"bufferView":14,
			"componentType":5126,
			"count":270,
			"type":"VEC2"
		},
		{
			"bufferView":15,
			"componentType":5123,
			"count":672,
			"type":"SCALAR"
		},
		{
			"bufferView":16,
			"componentType":5126,
			"count":356,
			"max":[
				0.5500592589378357,
				0.549721360206604,
				5.20668363571167
			],
			"min":[
				-0.5518171787261963,
				-0.5518174171447754,
				1.443061351776123
			],
			"type":"VEC3"
		},
		{
			"bufferView":17,
			"componentType":5126,
			"count":356,
			"type":"VEC3"
		},
		{
			"bufferView":18,
			"componentType":5126,
			"count":356,
			"type":"VEC2"
		},
		{
			"bufferView":19,
			"componentType":5123,
			"count":672,
			"type":"SCALAR"
		}
	],
	"bufferViews":[
		{
			"buffer":0,
			"byteLength":1176,
			"byteOffset":0,
			"target":34962
		},
		{
			"buffer":0,
			"byteLength":1176,
			"byteOffset":1176,
			"target":34962
		},
		{
			"buffer":0,
			"byteLength":784,
			"byteOffset":2352,
			"target":34962
		},
		{
			"buffer":0,
			"byteLength":384,
			"byteOffset":3136,
			"target":34963
		},
		{
			"buffer":0,
			"byteLength":2640,
			"byteOffset":3520,
			"target":34962
		},
		{
			"buffer":0,
			"byteLength":2640,
			"byteOffset":6160,
			"target":34962
		},
		{
			"buffer":0,
			"byteLength":1760,
			"byteOffset":8800,
			"target":34962
		},
		{
			"buffer":0,
			"byteLength":816,
			"byteOffset":10560,
			"target":34963
		},
		{
			"buffer":0,
			"byteLength":1344,
			"byteOffset":11376,
			"target":34962
		},
		{
			"buffer":0,
			"byteLength":1344,
			"byteOffset":12720,
			"target":34962
		},
		{
			"buffer":0,
			"byteLength":896,
			"byteOffset":14064,
			"target":34962
		},
		{
			"buffer":0,
			"byteLength":480,
			"byteOffset":14960,
			"target":34963
		},
		{
			"buffer":0,
			"byteLength":3240,
			"byteOffset":15440,
			"target":34962
		},
		{
			"buffer":0,
			"byteLength":3240,
			"byteOffset":18680,
			"target":34962
		},
		{
			"buffer":0,
			"byteLength":2160,
			"byteOffset":21920,
			"target":34962
		},
		{
			"buffer":0,
			"byteLength":1344,
			"byteOffset":24080,
			"target":34963
		},
		{
			"buffer":0,
			"byteLength":4272,
			"byteOffset":25424,
			"target":34962
		},
		{
			"buffer":0,
			"byteLength":4272,
			"byteOffset":29696,
			"target":34962
		},
		{
			"buffer":0,
			"byteLength":2848,
			"byteOffset":33968,
			"target":34962
		},
		{
			"buffer":0,
			"byteLength":1344,
			"byteOffset":36816,
			"target":34963
		}
	],
	"samplers":[
		{
			"magFilter":9729,
			"minFilter":9987
		}
	],
	"buffers":[
		{
			"byteLength":38160,
			"uri":"Turret.bin"
		}
	]
}
